<svg width="109" height="23" viewBox="0 0 109 23" fill="none" xmlns="http://www.w3.org/2000/svg">
<path d="M102.971 19.0333H103.42V19.5541C103.635 19.2308 103.941 18.9614 104.444 18.9614C105.18 18.9614 105.611 19.4464 105.611 20.1648V22.0327H105.162V20.2726C105.162 19.7158 104.839 19.3566 104.318 19.3566C103.797 19.3566 103.402 19.7517 103.402 20.3085V22.0327H102.953V19.0333H102.971ZM101.534 19.0333H101.983V22.0327H101.534V19.0333ZM101.498 17.8838H102.019V18.3687H101.498V17.8838ZM96.0019 19.0333H96.451V19.5182C96.6665 19.2308 96.918 18.9614 97.4388 18.9614C97.9238 18.9614 98.2471 19.2129 98.3908 19.5541C98.6063 19.2308 98.9116 18.9614 99.4505 18.9614C100.151 18.9614 100.582 19.4104 100.582 20.1648V22.0327H100.133V20.2726C100.133 19.6799 99.8456 19.3566 99.3607 19.3566C98.9116 19.3566 98.5165 19.7158 98.5165 20.2726V21.9968H98.0675V20.2366C98.0675 19.6798 97.7801 19.3566 97.2951 19.3566C96.8102 19.3566 96.451 19.7517 96.451 20.3085V22.0327H96.0019V19.0333ZM93.7209 19.0333H94.1699V19.8056C94.3855 19.3206 94.8345 18.9614 95.4092 18.9614V19.4464H95.3733C94.7088 19.4464 94.1699 19.8954 94.1699 20.8114V22.0148H93.7209V19.0333ZM92.3738 20.9371V20.6497C92.1583 20.5779 91.853 20.5061 91.4937 20.5061C90.937 20.5061 90.6136 20.7575 90.6136 21.0988C90.6136 21.4939 90.9729 21.6915 91.35 21.6915C91.9607 21.7454 92.3738 21.44 92.3738 20.9371ZM90.1646 21.1886C90.1646 20.524 90.6855 20.2007 91.4758 20.2007C91.8709 20.2007 92.1403 20.2366 92.3918 20.3444V20.2366C92.3918 19.7158 92.0685 19.4284 91.5117 19.4284C91.1525 19.4284 90.8831 19.5002 90.5957 19.6439L90.452 19.2847C90.7753 19.141 91.1166 19.0333 91.5476 19.0333C91.9787 19.0333 92.284 19.141 92.5355 19.3566C92.751 19.5721 92.8588 19.8415 92.8588 20.2366V22.0687H92.4097V21.6196C92.1942 21.907 91.853 22.1405 91.3141 22.1405C90.7214 22.1046 90.1646 21.7813 90.1646 21.1886ZM85.7283 20.0211C85.7283 18.8896 86.5365 17.9017 87.7758 17.9017C88.4763 17.9017 88.9073 18.1172 89.2845 18.4226L88.9972 18.7818C88.6739 18.4944 88.3326 18.3328 87.7578 18.3328C86.8418 18.3328 86.2132 19.1051 86.2132 19.9852C86.2132 20.973 86.8418 21.6735 87.8297 21.6735C88.2967 21.6735 88.7098 21.4939 88.9972 21.2425V20.2546H87.7578V19.8235H89.4462V21.44C89.051 21.7993 88.4942 22.0687 87.8297 22.0687C86.5365 22.1405 85.7283 21.1886 85.7283 20.0211ZM80.5734 22.841L80.7171 22.4818C80.8608 22.5536 81.0045 22.5895 81.1841 22.5895C81.4715 22.5895 81.6152 22.4458 81.8128 22.0327L80.4298 19.0333H80.9147L82.0103 21.5298L82.9623 19.0333H83.4472L82.172 22.1405C81.9205 22.7691 81.6152 22.9847 81.1841 22.9847C81.0045 22.9847 80.789 22.9488 80.5734 22.841ZM79.6934 20.5599C79.6934 19.8595 79.2084 19.3925 78.6337 19.3925C78.0769 19.3925 77.538 19.8415 77.538 20.5599C77.538 21.2604 78.0589 21.7274 78.6337 21.7274C79.2084 21.7094 79.6934 21.2963 79.6934 20.5599ZM77.556 21.458V22.0148H77.107V17.7939H77.556V19.6439C77.8074 19.2847 78.1487 18.9794 78.7235 18.9794C79.4239 18.9794 80.1603 19.5362 80.1603 20.524C80.1603 21.5119 79.4599 22.0687 78.7235 22.0687C78.1487 22.1046 77.8074 21.8172 77.556 21.458ZM74.0716 20.5599C74.0716 19.8595 73.5507 19.3925 72.9759 19.3925C72.3832 19.3925 71.9162 19.8235 71.9162 20.5599C71.9162 21.2604 72.4012 21.7274 72.9759 21.7274C73.4968 21.7094 74.0716 21.2604 74.0716 20.5599ZM71.4313 20.5599C71.4313 19.5721 72.1318 18.9794 72.8682 18.9794C73.425 18.9794 73.7842 19.3027 74.0356 19.608V17.8119H74.4847V22.0687H74.0356V21.476C73.7842 21.8352 73.4429 22.1405 72.8682 22.1405C72.1677 22.1046 71.4313 21.5298 71.4313 20.5599ZM70.4434 20.3803C70.4075 19.8235 70.0842 19.3566 69.4915 19.3566C68.9706 19.3566 68.5755 19.7876 68.5036 20.3803H70.4434ZM69.5633 21.7094C69.9944 21.7094 70.2638 21.5298 70.5153 21.2784L70.8027 21.5298C70.4794 21.8891 70.1381 22.0866 69.5633 22.0866C68.7551 22.0866 68.0546 21.458 68.0546 20.5061C68.0546 19.626 68.6473 18.9255 69.4915 18.9255C70.3716 18.9255 70.8925 19.626 70.8925 20.5061V20.6497H68.5036C68.5755 21.3682 69.0245 21.7094 69.5633 21.7094ZM66.0789 19.0333H66.5459V19.8056C66.7614 19.3206 67.2105 18.9614 67.7852 18.9614V19.4464H67.7493C67.0847 19.4464 66.5459 19.8954 66.5459 20.8114V22.0148H66.0789V19.0333ZM64.8755 20.3803C64.8396 19.8235 64.5163 19.3566 63.9236 19.3566C63.4027 19.3566 63.0076 19.7876 62.9357 20.3803H64.8755ZM63.9954 21.7094C64.4265 21.7094 64.6959 21.5298 64.9474 21.2784L65.2347 21.5298C64.9114 21.8891 64.5702 22.0866 63.9954 22.0866C63.1872 22.0866 62.4867 21.458 62.4867 20.5061C62.4867 19.626 63.0794 18.9255 63.9236 18.9255C64.8037 18.9255 65.3245 19.626 65.3245 20.5061V20.6497H62.9357C63.0076 21.3682 63.4566 21.7094 63.9954 21.7094ZM57.6193 19.0333H58.1042L58.8765 21.458L59.6848 19.0333H60.0799L60.8882 21.458L61.6605 19.0333H62.1095L61.0498 22.0687H60.6547L59.8464 19.7158L59.0382 22.0687H58.643L57.6193 19.0333ZM56.811 20.5599C56.811 19.8954 56.3261 19.3566 55.6795 19.3566C55.0149 19.3566 54.5839 19.8774 54.5839 20.524C54.5839 21.1527 55.0688 21.6915 55.7154 21.6915C56.344 21.7094 56.811 21.1886 56.811 20.5599ZM54.1348 20.5599C54.1348 19.7158 54.7994 18.9794 55.7154 18.9794C56.6314 18.9794 57.26 19.6798 57.26 20.524C57.26 21.3682 56.5955 22.1046 55.6795 22.1046C54.7635 22.1405 54.1348 21.4041 54.1348 20.5599ZM53.0751 20.5599C53.0751 19.8595 52.5902 19.3925 52.0154 19.3925C51.4586 19.3925 50.9198 19.8415 50.9198 20.5599C50.9198 21.2604 51.4407 21.7274 52.0154 21.7274C52.6261 21.7094 53.0751 21.2963 53.0751 20.5599ZM50.5067 19.0333H50.9557V19.626C51.2072 19.2667 51.5485 18.9614 52.1232 18.9614C52.8237 18.9614 53.5601 19.5182 53.5601 20.5061C53.5601 21.4939 52.8596 22.0507 52.1232 22.0507C51.5664 22.0507 51.2072 21.7274 50.9557 21.4221V22.9308H50.5067V19.0333Z" fill="black"/>
<path d="M46.2499 3.01127C45.1543 3.01127 44.2383 3.2268 43.466 3.60398C43.1067 3.78359 42.8732 3.92728 42.1907 4.48407C42.1907 4.48407 40.5742 6.10056 40.5742 8.59714V13.5903C40.5742 13.7699 40.7179 13.9495 40.9334 13.9495H41.7058C41.8854 13.9495 42.065 13.8058 42.065 13.5903V8.63307C42.065 7.96851 42.2446 7.26803 42.5859 6.54959C42.981 5.77726 43.9689 4.43019 46.2858 4.43019C48.0101 4.43019 49.2853 5.16659 49.9858 6.54959C50.345 7.25007 50.5426 7.91463 50.5426 8.63307V13.6262C50.5426 13.8058 50.6863 13.9854 50.9018 13.9854H51.6741C51.8537 13.9854 52.0334 13.8418 52.0334 13.6262V8.63307C51.9435 3.53214 47.9742 3.01127 46.2499 3.01127ZM32.5457 3.01127C31.45 3.01127 30.534 3.2268 29.7617 3.60398C29.4025 3.78359 29.169 3.92728 28.4865 4.48407C28.4865 4.48407 26.87 6.10056 26.87 8.59714V13.5903C26.87 13.7699 27.0137 13.9495 27.2292 13.9495H28.0015C28.1811 13.9495 28.3607 13.8058 28.3607 13.5903V8.63307C28.3607 7.96851 28.5403 7.26803 28.8816 6.54959C29.2768 5.77726 30.2466 4.43019 32.5816 4.43019C34.3058 4.43019 35.5811 5.16659 36.2815 6.54959C36.6408 7.25007 36.8383 7.91463 36.8383 8.63307V13.6262C36.8383 13.8058 36.982 13.9854 37.1976 13.9854H37.9699C38.1495 13.9854 38.3291 13.8418 38.3291 13.6262V8.63307C38.2573 3.53214 34.2699 3.01127 32.5457 3.01127ZM83.1957 3.56806H81.2918V0.891869C81.2918 0.748181 81.1481 0.604492 81.0045 0.604492H80.1244C79.9807 0.604492 79.837 0.748181 79.837 0.891869V10.5729C79.837 12.4049 81.0404 13.734 82.9442 14.0573C83.052 14.0573 83.2675 14.0932 83.2675 13.7699V12.9257C83.2675 12.6743 83.052 12.6024 82.9442 12.5665C81.8845 12.2792 81.3278 11.5787 81.3278 10.5549V4.98698H83.1957C83.3394 4.98698 83.4472 4.87921 83.4472 4.73552V3.78359C83.4292 3.67583 83.2855 3.56806 83.1957 3.56806ZM10.3638 10.8243C9.87886 12.0995 8.53178 12.8359 6.69976 12.8359C4.38279 12.8359 2.47892 10.9321 2.47892 8.65102C2.47892 6.33405 4.38279 4.46611 6.69976 4.46611C8.53178 4.46611 9.80701 5.23843 10.3638 6.44182C10.4716 6.69327 10.5075 6.80104 10.7589 6.80104H11.7648C11.9803 6.80104 12.0162 6.58551 11.9803 6.47774C11.4235 4.39427 9.37595 3.02923 6.69976 3.02923C3.52066 3.02923 0.988159 5.52581 0.988159 8.66898C0.988159 11.7762 3.52066 14.3087 6.69976 14.3087C9.34003 14.3087 11.3876 12.9437 11.9803 10.8961C12.0162 10.7884 11.9803 10.5369 11.7648 10.5369H10.7769C10.4536 10.519 10.3997 10.7165 10.3638 10.8243ZM55.3741 7.91463H63.4745C63.6541 7.91463 63.6182 7.77093 63.6182 7.77093C63.2231 6.42386 61.7862 4.43019 59.4692 4.43019C57.2061 4.43019 55.6974 6.4059 55.3202 7.77093C55.2663 7.80686 55.2304 7.91463 55.3741 7.91463ZM63.2231 11.435H63.9954C64.4803 11.435 64.3905 11.7224 64.3187 11.866C63.69 13.3389 61.8221 14.2908 59.4153 14.2908C56.2721 14.2908 53.7037 11.7583 53.7037 8.65102C53.7037 5.54377 56.2362 3.01127 59.4153 3.01127C61.1037 3.01127 62.6483 3.67583 63.708 4.84329C64.6959 5.93891 65.1449 7.37579 65.073 9.0282C65.073 9.13597 65.0371 9.35151 64.624 9.35151H55.3921C55.2843 9.35151 55.2843 9.45927 55.2843 9.45927C55.3561 11.0398 57.1522 12.8359 59.3614 12.8359C60.7624 12.8359 61.7503 12.4767 62.3609 11.884C62.7202 11.5787 62.792 11.435 63.2231 11.435ZM75.9754 10.8243C75.4904 12.0995 74.1434 12.8359 72.3113 12.8359C69.9944 12.8359 68.0905 10.9321 68.0905 8.65102C68.0905 6.33405 69.9944 4.46611 72.3113 4.46611C74.1434 4.46611 75.4186 5.23843 75.9754 6.44182C76.0831 6.69327 76.1191 6.80104 76.3705 6.80104H77.3943C77.5739 6.80104 77.6458 6.58551 77.6098 6.47774C77.053 4.39427 75.0055 3.02923 72.3293 3.02923C69.1861 3.02923 66.6177 5.56173 66.6177 8.66898C66.6177 11.7762 69.1861 14.3087 72.3293 14.3087C74.9696 14.3087 77.0171 12.9437 77.6098 10.8961C77.6458 10.7884 77.6098 10.5369 77.3943 10.5369H76.4064C76.1011 10.519 76.0113 10.7165 75.9754 10.8243ZM23.637 9.63888C23.152 11.5068 21.4457 12.8719 19.4162 12.8719C17.4045 12.8719 15.7521 11.5068 15.3031 9.63888H13.7944C14.2254 12.3151 16.5424 14.3267 19.3982 14.3267C22.254 14.3267 24.6428 12.2792 25.1816 9.60296H23.6729V9.63888H23.637ZM15.321 7.66317H13.8123C14.3332 4.98698 16.704 2.93942 19.5598 2.93942C22.3438 2.93942 24.7326 5.0229 25.1637 7.62725H23.655C23.2239 5.7593 21.5356 4.39427 19.5419 4.39427C17.5482 4.39427 15.824 5.79522 15.321 7.66317Z" fill="black"/>
<path d="M107.21 5.02314H107.425V3.74791L107.91 5.02314H108.054L108.539 3.74791V5.02314H108.754V3.58626H108.395L107.964 4.68188L107.533 3.58626H107.174V5.02314H107.21ZM106.222 5.02314H106.437V3.74791H106.886V3.5683H105.755V3.74791H106.222V5.02314ZM101.282 12.7643C101.211 12.6925 101.103 12.6566 100.995 12.6925C100.6 12.8002 100.223 12.8721 99.7916 12.8721C97.4387 12.8721 95.5349 10.9682 95.5349 8.65126C95.5349 6.33429 97.4387 4.43042 99.7916 4.43042C102.145 4.43042 104.048 6.33429 104.048 8.65126C104.048 9.08232 103.977 9.49543 103.869 9.89057C103.833 9.99834 103.869 10.1061 103.941 10.1779L104.677 10.9143C104.821 11.058 105.072 11.0221 105.126 10.8425C105.413 10.1779 105.557 9.44154 105.557 8.68718C105.557 5.54401 102.989 2.97559 99.7737 2.97559C96.6125 2.97559 93.9902 5.50808 93.9902 8.68718C93.9902 11.8304 96.5587 14.3988 99.7737 14.3988C100.51 14.3988 101.211 14.2551 101.893 14.0036C102.073 13.9318 102.145 13.6803 102.001 13.5546L101.282 12.7643ZM101.749 9.94445L101.157 10.5372C101.049 10.6449 101.049 10.8605 101.157 10.9682L104.677 14.4886C104.785 14.5963 105 14.5963 105.108 14.4886L105.701 13.8959C105.809 13.7881 105.809 13.5726 105.701 13.4648L102.162 9.94445C102.037 9.80076 101.857 9.80076 101.749 9.94445ZM91.8529 3.85567V13.6803C91.8529 13.8599 91.7092 13.9677 91.5655 13.9677H90.7213C90.5417 13.9677 90.434 13.824 90.434 13.6803V3.85567C90.434 3.67606 90.5776 3.5683 90.7213 3.5683H91.5655C91.7092 3.5683 91.8529 3.71199 91.8529 3.85567Z" fill="#009CDE"/>
</svg>
