<svg width="45" height="9" viewBox="0 0 45 9" fill="none" xmlns="http://www.w3.org/2000/svg">
<path d="M4.5 9C6.98528 9 9 6.98528 9 4.5C9 2.01472 6.98528 0 4.5 0C2.01472 0 0 2.01472 0 4.5C0 6.98528 2.01472 9 4.5 9Z" fill="#040C27"/>
<path d="M22.5 9C24.9853 9 27 6.98528 27 4.5C27 2.01472 24.9853 0 22.5 0C20.0147 0 18 2.01472 18 4.5C18 6.98528 20.0147 9 22.5 9Z" fill="#040C27"/>
<path d="M40.5 9C42.9853 9 45 6.98528 45 4.5C45 2.01472 42.9853 0 40.5 0C38.0147 0 36 2.01472 36 4.5C36 6.98528 38.0147 9 40.5 9Z" fill="#040C27"/>
</svg>
