<svg width="104" height="37" viewBox="0 0 104 37" fill="none" xmlns="http://www.w3.org/2000/svg">
<path d="M8.70714 3.28724C10.7898 3.28724 12.6098 3.70002 14.1671 4.52558C15.7244 5.35114 16.9252 6.51443 17.7695 8.01545C18.6326 9.49771 19.0642 11.2145 19.0642 13.1658C19.0642 15.0984 18.6326 16.8152 17.7695 18.3162C16.9252 19.8172 15.715 20.9805 14.1389 21.8061C12.5816 22.6316 10.771 23.0444 8.70714 23.0444H1.30524V3.28724H8.70714ZM8.39755 18.8791C10.2175 18.8791 11.6341 18.3819 12.6473 17.3874C13.6605 16.393 14.1671 14.9858 14.1671 13.1658C14.1671 11.3458 13.6605 9.92925 12.6473 8.91606C11.6341 7.90288 10.2175 7.39628 8.39755 7.39628H6.11788V18.8791H8.39755Z" fill="#090707"/>
<path d="M24.1741 5.70764C23.3298 5.70764 22.6355 5.46372 22.0914 4.97589C21.5661 4.4693 21.3034 3.85013 21.3034 3.11838C21.3034 2.36787 21.5661 1.7487 22.0914 1.26087C22.6355 0.754274 23.3298 0.500977 24.1741 0.500977C24.9996 0.500977 25.6751 0.754274 26.2005 1.26087C26.7446 1.7487 27.0166 2.36787 27.0166 3.11838C27.0166 3.85013 26.7446 4.4693 26.2005 4.97589C25.6751 5.46372 24.9996 5.70764 24.1741 5.70764ZM26.5663 7.33999V23.0444H21.7537V7.33999H26.5663Z" fill="#090707"/>
<path d="M36.4427 23.2696C35.073 23.2696 33.8535 23.035 32.784 22.566C31.7145 22.0969 30.8702 21.459 30.251 20.6522C29.6318 19.8266 29.2847 18.9072 29.2097 17.894H33.966C34.0223 18.4382 34.2756 18.8791 34.7259 19.2168C35.1762 19.5545 35.7297 19.7234 36.3864 19.7234C36.9868 19.7234 37.4465 19.6108 37.7655 19.3857C38.1032 19.1418 38.2721 18.8322 38.2721 18.4569C38.2721 18.0066 38.0375 17.6783 37.5685 17.4719C37.0994 17.2467 36.3395 17.0028 35.2888 16.7401C34.163 16.4774 33.2249 16.2054 32.4744 15.9239C31.7239 15.6237 31.0766 15.1641 30.5324 14.5449C29.9883 13.907 29.7163 13.0532 29.7163 11.9838C29.7163 11.0832 29.9602 10.267 30.448 9.53523C30.9546 8.78472 31.6864 8.1937 32.6433 7.76216C33.6189 7.33061 34.7728 7.11484 36.105 7.11484C38.0751 7.11484 39.623 7.60267 40.7488 8.57834C41.8933 9.554 42.55 10.8486 42.7188 12.4622H38.2721C38.197 11.9181 37.9531 11.4866 37.5403 11.1676C37.1463 10.8486 36.621 10.6891 35.9643 10.6891C35.4014 10.6891 34.9698 10.8017 34.6696 11.0269C34.3694 11.2333 34.2193 11.5241 34.2193 11.8993C34.2193 12.3496 34.4539 12.6874 34.9229 12.9125C35.4108 13.1377 36.1613 13.3628 37.1745 13.588C38.3377 13.8882 39.2853 14.1884 40.017 14.4886C40.7488 14.77 41.3867 15.2391 41.9308 15.8958C42.4937 16.5337 42.7845 17.3968 42.8033 18.4851C42.8033 19.4044 42.5406 20.23 42.0152 20.9617C41.5086 21.6747 40.7675 22.2376 39.7919 22.6504C38.835 23.0632 37.7186 23.2696 36.4427 23.2696Z" fill="#090707"/>
<path d="M54.5004 18.9635V23.0444H52.0519C50.307 23.0444 48.9467 22.6222 47.971 21.7779C46.9954 20.9148 46.5075 19.517 46.5075 17.5844V11.3365H44.5937V7.33999H46.5075V3.5124H51.3202V7.33999H54.4723V11.3365H51.3202V17.6407C51.3202 18.1098 51.4327 18.4475 51.6579 18.6539C51.883 18.8603 52.2583 18.9635 52.7837 18.9635H54.5004Z" fill="#090707"/>
<path d="M56.2243 15.1641C56.2243 13.5505 56.5245 12.1339 57.1249 10.9143C57.7441 9.69472 58.579 8.75658 59.6297 8.09989C60.6804 7.44319 61.8531 7.11484 63.1477 7.11484C64.2547 7.11484 65.221 7.33999 66.0466 7.7903C66.8909 8.24061 67.5382 8.83163 67.9885 9.56338V7.33999H72.8012V23.0444H67.9885V20.821C67.5194 21.5528 66.8627 22.1438 66.0184 22.5941C65.1929 23.0444 64.2266 23.2696 63.1196 23.2696C61.8437 23.2696 60.6804 22.9412 59.6297 22.2845C58.579 21.6091 57.7441 20.6615 57.1249 19.442C56.5245 18.2036 56.2243 16.7777 56.2243 15.1641ZM67.9885 15.1922C67.9885 13.9914 67.6508 13.0439 66.9753 12.3496C66.3186 11.6554 65.5118 11.3083 64.5549 11.3083C63.598 11.3083 62.7818 11.6554 62.1064 12.3496C61.4497 13.0251 61.1213 13.9632 61.1213 15.1641C61.1213 16.3649 61.4497 17.3218 62.1064 18.0348C62.7818 18.729 63.598 19.0761 64.5549 19.0761C65.5118 19.0761 66.3186 18.729 66.9753 18.0348C67.6508 17.3405 67.9885 16.393 67.9885 15.1922Z" fill="#090707"/>
<path d="M85.8519 7.17113C87.6906 7.17113 89.1541 7.77154 90.2424 8.97235C91.3494 10.1544 91.9029 11.7868 91.9029 13.8694V23.0444H87.1184V14.5167C87.1184 13.466 86.8463 12.6498 86.3022 12.0682C85.7581 11.4866 85.0263 11.1957 84.1069 11.1957C83.1876 11.1957 82.4558 11.4866 81.9117 12.0682C81.3676 12.6498 81.0955 13.466 81.0955 14.5167V23.0444H76.2829V7.33999H81.0955V9.42266C81.5834 8.72844 82.2401 8.18432 83.0656 7.7903C83.8912 7.37752 84.8199 7.17113 85.8519 7.17113Z" fill="#090707"/>
<path d="M104 18.9635V23.0444H101.551C99.8065 23.0444 98.4462 22.6222 97.4706 21.7779C96.4949 20.9148 96.0071 19.517 96.0071 17.5844V11.3365H94.0933V7.33999H96.0071V3.5124H100.82V7.33999H103.972V11.3365H100.82V17.6407C100.82 18.1098 100.932 18.4475 101.157 18.6539C101.383 18.8603 101.758 18.9635 102.283 18.9635H104Z" fill="#090707"/>
<path d="M82.9107 32.5782C83.0591 32.2492 83.2848 31.9945 83.5879 31.8139C83.8975 31.6333 84.2748 31.543 84.7198 31.543V32.2492H84.536C84.0459 32.2492 83.6524 32.3814 83.3557 32.6459C83.0591 32.9103 82.9107 33.3521 82.9107 33.9713V36.922H82.2335V31.6397H82.9107V32.5782Z" fill="#090707"/>
<path d="M85.429 34.2712C85.429 33.7294 85.5355 33.2554 85.7483 32.849C85.9676 32.4363 86.2675 32.1202 86.648 31.9009C87.035 31.6752 87.4704 31.5623 87.9541 31.5623C88.4572 31.5623 88.8893 31.6784 89.2505 31.9106C89.6181 32.1428 89.8825 32.4395 90.0438 32.8007V31.6397H90.721V36.922H90.0438V35.7514C89.8761 36.1126 89.6084 36.4125 89.2408 36.6511C88.8796 36.8833 88.4475 36.9994 87.9444 36.9994C87.4671 36.9994 87.035 36.8865 86.648 36.6608C86.2675 36.4351 85.9676 36.1158 85.7483 35.703C85.5355 35.2902 85.429 34.813 85.429 34.2712ZM90.0438 34.2809C90.0438 33.8552 89.9567 33.4811 89.7826 33.1586C89.6084 32.8361 89.3698 32.5878 89.0667 32.4137C88.77 32.2395 88.441 32.1525 88.0799 32.1525C87.7058 32.1525 87.3704 32.2363 87.0737 32.404C86.777 32.5717 86.5416 32.8168 86.3675 33.1393C86.1998 33.4553 86.1159 33.8326 86.1159 34.2712C86.1159 34.7033 86.1998 35.0839 86.3675 35.4128C86.5416 35.7353 86.777 35.9836 87.0737 36.1577C87.3704 36.3254 87.7058 36.4093 88.0799 36.4093C88.441 36.4093 88.77 36.3222 89.0667 36.1481C89.3698 35.9739 89.6084 35.7256 89.7826 35.4031C89.9567 35.0806 90.0438 34.7065 90.0438 34.2809Z" fill="#090707"/>
<path d="M91.9575 34.2809C91.9575 33.7326 92.0671 33.2554 92.2864 32.849C92.5057 32.4363 92.8088 32.1202 93.1958 31.9009C93.5828 31.6752 94.0246 31.5623 94.5212 31.5623C95.1726 31.5623 95.708 31.7236 96.1272 32.0461C96.5529 32.3685 96.827 32.8071 96.9495 33.3618H96.2239C96.1336 32.9813 95.9369 32.6846 95.6338 32.4717C95.3371 32.2524 94.9662 32.1428 94.5212 32.1428C94.1665 32.1428 93.8472 32.2234 93.5634 32.3847C93.2796 32.5459 93.0539 32.7878 92.8862 33.1103C92.725 33.4263 92.6443 33.8165 92.6443 34.2809C92.6443 34.7452 92.725 35.1387 92.8862 35.4612C93.0539 35.7836 93.2796 36.0255 93.5634 36.1868C93.8472 36.348 94.1665 36.4286 94.5212 36.4286C94.9662 36.4286 95.3371 36.3222 95.6338 36.1094C95.9369 35.8901 96.1336 35.5869 96.2239 35.2H96.9495C96.827 35.7417 96.5529 36.1771 96.1272 36.506C95.7015 36.8349 95.1662 36.9994 94.5212 36.9994C94.0246 36.9994 93.5828 36.8898 93.1958 36.6705C92.8088 36.4447 92.5057 36.1287 92.2864 35.7224C92.0671 35.3096 91.9575 34.8291 91.9575 34.2809Z" fill="#090707"/>
<path d="M102.979 34.01C102.979 34.2422 102.973 34.4195 102.96 34.5421H98.5776C98.5969 34.942 98.6937 35.2838 98.8678 35.5676C99.0419 35.8514 99.2709 36.0674 99.5547 36.2158C99.8385 36.3577 100.148 36.4286 100.483 36.4286C100.922 36.4286 101.29 36.3222 101.586 36.1094C101.889 35.8965 102.089 35.6095 102.186 35.2483H102.902C102.773 35.7643 102.496 36.1868 102.07 36.5157C101.651 36.8382 101.122 36.9994 100.483 36.9994C99.9868 36.9994 99.5418 36.8898 99.1484 36.6705C98.7549 36.4447 98.4453 36.1287 98.2196 35.7224C98.0003 35.3096 97.8907 34.8291 97.8907 34.2809C97.8907 33.7326 98.0003 33.2521 98.2196 32.8394C98.4389 32.4266 98.7453 32.1105 99.1387 31.8913C99.5321 31.672 99.9804 31.5623 100.483 31.5623C100.987 31.5623 101.425 31.672 101.799 31.8913C102.18 32.1105 102.47 32.4072 102.67 32.7813C102.876 33.1489 102.979 33.5585 102.979 34.01ZM102.293 33.9906C102.299 33.5972 102.218 33.2618 102.051 32.9845C101.889 32.7071 101.667 32.4975 101.383 32.3556C101.099 32.2137 100.79 32.1428 100.454 32.1428C99.9513 32.1428 99.5224 32.304 99.1677 32.6265C98.813 32.949 98.6163 33.4037 98.5776 33.9906H102.293Z" fill="#090707"/>
<path d="M0 34.0371H70.3603V34.9166H0V34.0371Z" fill="#3553FA"/>
</svg>
