<svg width="17" height="18" viewBox="0 0 17 18" fill="none" xmlns="http://www.w3.org/2000/svg">
<path d="M14.4643 8.11005H10.3846V4.59275H9.04945C9.46273 4.04772 9.68479 3.3844 9.68195 2.70341C9.68195 1.69072 9.19688 0.739182 8.41603 0.220198L8.08476 0L7.75353 0.220198C6.97253 0.739256 6.4876 1.69076 6.4876 2.70341C6.48482 3.3844 6.70695 4.04771 7.12029 4.59271H5.63736V8.11001H2.1511C1.58079 8.11065 1.03403 8.33475 0.630758 8.73313C0.227489 9.13151 0.000647866 9.67165 0 10.235V16.8276C0.00035339 17.1384 0.125506 17.4364 0.348 17.6562C0.570494 17.876 0.872159 17.9997 1.18681 18H15.4286C15.7432 17.9997 16.0449 17.876 16.2674 17.6562C16.4899 17.4364 16.615 17.1384 16.6154 16.8276V10.2351C16.6147 9.67169 16.3879 9.13155 15.9846 8.73316C15.5814 8.33478 15.0346 8.11069 14.4643 8.11005V8.11005ZM8.08476 1.49588C8.344 1.81405 8.49514 2.24572 8.49514 2.70345C8.49514 3.16117 8.344 3.59288 8.08476 3.91102C7.82555 3.59288 7.67442 3.16117 7.67442 2.70341C7.67442 2.24565 7.82555 1.81405 8.08476 1.49588ZM6.82418 5.76518H9.1978V8.11005H6.82418V5.76518ZM1.18681 10.2351C1.18711 9.98253 1.2888 9.7404 1.46957 9.56181C1.65035 9.38323 1.89545 9.28277 2.1511 9.28248H14.4643C14.7199 9.28277 14.965 9.38323 15.1458 9.56181C15.3266 9.7404 15.4283 9.98253 15.4286 10.2351V11.392L14.6275 11.7412C14.4708 11.8093 14.3015 11.8445 14.1303 11.8445C13.9592 11.8445 13.7899 11.8093 13.6332 11.7412L12.239 11.1335L10.8445 11.7412C10.6878 11.8093 10.5185 11.8445 10.3473 11.8445C10.1762 11.8445 10.0069 11.8093 9.85018 11.7412L8.45605 11.1335L7.06154 11.7411C6.90486 11.8093 6.73555 11.8444 6.56438 11.8444C6.3932 11.8444 6.22389 11.8093 6.06721 11.7411L4.67308 11.1335L3.27883 11.7411C3.12215 11.8093 2.95285 11.8444 2.78167 11.8444C2.61049 11.8444 2.44118 11.8093 2.2845 11.7411L1.18681 11.2628V10.2351ZM15.4286 16.8276H1.18681V12.5443L1.80537 12.8139C2.11302 12.9476 2.44547 13.0166 2.78159 13.0166C3.11772 13.0166 3.45017 12.9476 3.75782 12.8139L4.67308 12.4149L5.58837 12.8139C5.89602 12.9476 6.22846 13.0166 6.56458 13.0166C6.9007 13.0166 7.23314 12.9476 7.54079 12.8139L8.45605 12.4149L9.37126 12.8139C9.67891 12.9476 10.0113 13.0166 10.3475 13.0166C10.6836 13.0166 11.016 12.9476 11.3236 12.8139L12.239 12.4149L13.1543 12.8139C13.4619 12.9476 13.7943 13.0167 14.1304 13.0167C14.4665 13.0167 14.799 12.9476 15.1066 12.8139L15.429 12.6734L15.4293 16.8276H15.4286Z" fill="#4565CF"/>
</svg>
