<svg width="15" height="12" viewBox="0 0 15 12" fill="none" xmlns="http://www.w3.org/2000/svg">
<path d="M7.09091 0C6.76364 0 6.65455 0.218182 6.43636 0.436364L0.109091 10.8C2.43837e-08 10.9091 0 11.1273 0 11.2364C0 11.7818 0.436364 12 0.763636 12H13.4182C13.8545 12 14.1818 11.7818 14.1818 11.2364C14.1818 11.0182 14.1818 11.0182 14.0727 10.8L7.85455 0.436364C7.63636 0.218182 7.41818 0 7.09091 0ZM7.09091 1.63636L10.6909 7.63636H9.81818L8.18182 6L7.09091 7.63636L6 6L4.36364 7.63636H3.38182L7.09091 1.63636Z" fill="#040C27"/>
</svg>
