<?xml version="1.0" encoding="UTF-8" standalone="no"?>
<svg
   width="20"
   height="20"
   viewBox="0 0 20 20"
   fill="none"
   version="1.1"
   id="svg175"
   sodipodi:docname="horizontal-dots.svg"
   inkscape:version="1.1 (c4e8f9e, 2021-05-24)"
   xmlns:inkscape="http://www.inkscape.org/namespaces/inkscape"
   xmlns:sodipodi="http://sodipodi.sourceforge.net/DTD/sodipodi-0.dtd"
   xmlns="http://www.w3.org/2000/svg"
   xmlns:svg="http://www.w3.org/2000/svg">
  <defs
     id="defs179" />
  <sodipodi:namedview
     id="namedview177"
     pagecolor="#ffffff"
     bordercolor="#666666"
     borderopacity="1.0"
     inkscape:pageshadow="2"
     inkscape:pageopacity="0.0"
     inkscape:pagecheckerboard="0"
     showgrid="false"
     inkscape:zoom="18.069663"
     inkscape:cx="5.9491979"
     inkscape:cy="4.1229325"
     inkscape:window-width="1296"
     inkscape:window-height="809"
     inkscape:window-x="0"
     inkscape:window-y="23"
     inkscape:window-maximized="0"
     inkscape:current-layer="svg175" />
  <path
     d="M 2,12 C 3.10457,12 4,11.10457 4,10 4,8.89543 3.10457,8 2,8 0.89543,8 0,8.89543 0,10 c 0,1.10457 0.89543,2 2,2 z"
     fill="#040c27"
     id="path169" />
  <path
     d="m 10,12 c 1.1046,0 2,-0.89543 2,-2 0,-1.10457 -0.8954,-2 -2,-2 -1.10457,0 -2,0.89543 -2,2 0,1.10457 0.89543,2 2,2 z"
     fill="#040c27"
     id="path171" />
  <path
     d="m 18,12 c 1.1046,0 2,-0.89543 2,-2 0,-1.10457 -0.8954,-2 -2,-2 -1.1046,0 -2,0.89543 -2,2 0,1.10457 0.8954,2 2,2 z"
     fill="#040c27"
     id="path173" />
</svg>
