<svg width="13" height="16" viewBox="0 0 13 16" fill="none" xmlns="http://www.w3.org/2000/svg">
<path d="M6.37378 0C3.02754 0 0 2.56544 0 6.53312C0 9.0667 1.95197 12.0464 5.84794 15.4803C6.15069 15.7432 6.60483 15.7432 6.90758 15.4803C10.7956 12.0464 12.7476 9.0667 12.7476 6.53312C12.7476 2.56544 9.72001 0 6.37378 0ZM6.37378 7.96722C5.49738 7.96722 4.78033 7.25017 4.78033 6.37378C4.78033 5.49738 5.49738 4.78033 6.37378 4.78033C7.25017 4.78033 7.96722 5.49738 7.96722 6.37378C7.96722 7.25017 7.25017 7.96722 6.37378 7.96722Z" fill="#4565CF"/>
</svg>
