<?xml version="1.0" encoding="UTF-8" standalone="no"?>
<svg
   width="17"
   height="17"
   viewBox="0 0 17 17"
   fill="none"
   version="1.1"
   id="svg61"
   sodipodi:docname="password.svg"
   inkscape:version="1.1 (c4e8f9e, 2021-05-24)"
   xmlns:inkscape="http://www.inkscape.org/namespaces/inkscape"
   xmlns:sodipodi="http://sodipodi.sourceforge.net/DTD/sodipodi-0.dtd"
   xmlns="http://www.w3.org/2000/svg"
   xmlns:svg="http://www.w3.org/2000/svg">
  <defs
     id="defs65" />
  <sodipodi:namedview
     id="namedview63"
     pagecolor="#ffffff"
     bordercolor="#666666"
     borderopacity="1.0"
     inkscape:pageshadow="2"
     inkscape:pageopacity="0.0"
     inkscape:pagecheckerboard="0"
     showgrid="false"
     inkscape:zoom="17.932227"
     inkscape:cx="4.1545315"
     inkscape:cy="9.006132"
     inkscape:window-width="1312"
     inkscape:window-height="809"
     inkscape:window-x="0"
     inkscape:window-y="23"
     inkscape:window-maximized="0"
     inkscape:current-layer="svg61" />
  <path
     style="color:#000000;fill:#4565cf;stroke-linecap:round;stroke-linejoin:round;-inkscape-stroke:none"
     d="M 14.445313,0.29296875 12.951172,1.7871094 10.333984,4.4042969 7.8183594,6.9199219 C 6.9890369,6.3892315 6.0650305,6.0225794 5.0664062,6.03125 3.7265565,6.0428958 2.4455009,6.5798773 1.4980469,7.5273437 0.55056805,8.4748101 0.01163349,9.7578159 0,11.097656 c -0.01164838,1.339838 0.50466108,2.631942 1.4355469,3.595703 a 1.0001,1.0001 0 0 0 0.00586,0.0078 c 0.4734952,0.47991 1.0387779,0.859954 1.6601563,1.121094 0.621543,0.261089 1.2889531,0.398029 1.9628906,0.40039 0.6741462,0.0022 1.3416221,-0.129752 1.9648438,-0.386718 0.6233278,-0.256881 1.189354,-0.634692 1.6660156,-1.111329 0.476623,-0.47671 0.8544045,-1.04279 1.1113281,-1.666015 C 10.063567,12.435392 10.193669,11.767921 10.191406,11.09375 10.189144,10.419672 10.054091,9.7523718 9.7929688,9.1308594 9.6654235,8.8272577 9.4285283,8.5925586 9.2460938,8.3203125 l 1.7949222,-1.7949219 1.535156,1.5351563 a 1.0001,1.0001 0 0 0 1.414062,0 l 2.617188,-2.6152344 a 1.0001,1.0001 0 0 0 0,-1.4140625 L 15.072266,2.4941406 15.859375,1.7070312 Z m -0.78711,3.61718755 0.828125,0.8281249 -1.203125,1.2011719 -0.828125,-0.828125 z M 5.0839844,8.03125 c 0.8146868,-0.00707 1.5988018,0.3060406 2.1855468,0.8710938 0.2897424,0.2871932 0.5216643,0.6277563 0.6796875,1.0039062 0.1589169,0.378247 0.2408102,0.783039 0.2421876,1.193359 0.00138,0.410428 -0.077962,0.817869 -0.2343751,1.197266 C 7.8006353,12.676248 7.5714862,13.020258 7.28125,13.310547 6.9910724,13.600709 6.6468893,13.830009 6.2675781,13.986328 5.8881808,14.142761 5.4806652,14.224018 5.0703125,14.222656 4.6597711,14.221218 4.253296,14.137425 3.875,13.978516 3.4995495,13.820729 3.1597953,13.591532 2.8730469,13.302734 2.3060342,12.715697 1.9929044,11.931395 2,11.115234 2.0070865,10.299077 2.3349697,9.5185383 2.9121094,8.9414063 3.4892538,8.3642542 4.2677963,8.0383442 5.0839844,8.03125 Z"
     id="path59" />
</svg>
