<svg width="19" height="13" viewBox="0 0 19 13" fill="none" xmlns="http://www.w3.org/2000/svg">
<path fill-rule="evenodd" clip-rule="evenodd" d="M14.8751 0.897334L12.5674 1.59084L14.1043 5.61033C15.0305 5.38346 16.0083 5.51808 16.8388 5.98678C17.6692 6.45549 18.2898 7.22304 18.5742 8.1332C18.8586 9.04335 18.7855 10.0277 18.3697 10.8858C17.954 11.744 17.2268 12.4114 16.3362 12.7523C15.4457 13.0932 14.4587 13.0819 13.5762 12.7206C12.6937 12.3594 11.982 11.6755 11.586 10.808C11.19 9.94055 11.1395 8.95479 11.4448 8.0514C11.75 7.14801 12.388 6.39489 13.229 5.94537L12.4568 3.92578L9.7943 9.45598C9.75592 9.53543 9.69589 9.60242 9.62112 9.64926C9.54634 9.6961 9.45987 9.72087 9.37164 9.72073H7.46826C7.34798 10.666 6.87228 11.53 6.13785 12.1371C5.40342 12.7442 4.46537 13.0489 3.51435 12.9893C2.56334 12.9296 1.67072 12.51 1.01794 11.8159C0.365154 11.1217 0.00118224 10.205 1.04065e-06 9.25215C-0.000709412 8.2981 0.362373 7.37967 1.01527 6.68401C1.66816 5.98835 2.56173 5.5678 3.51391 5.50806C4.46609 5.44832 5.40523 5.75387 6.13995 6.36247C6.87468 6.97107 7.34971 7.83691 7.46826 8.78357H8.63971L6.35303 2.38086C6.33501 2.33033 6.32582 2.27707 6.32586 2.22342H5.62298C5.49871 2.22342 5.37952 2.17405 5.29165 2.08618C5.20377 1.9983 5.1544 1.87911 5.1544 1.75484C5.1544 1.63056 5.20377 1.51138 5.29165 1.4235C5.37952 1.33563 5.49871 1.28626 5.62298 1.28626H7.7316C7.85588 1.28626 7.97506 1.33563 8.06294 1.4235C8.15082 1.51138 8.20018 1.63056 8.20018 1.75484C8.20018 1.87911 8.15082 1.9983 8.06294 2.08618C7.97506 2.17405 7.85588 2.22342 7.7316 2.22342H7.29207L8.1552 4.6399L11.9634 2.63577L11.5112 1.45354C11.4882 1.39334 11.4778 1.32903 11.4808 1.26465C11.4838 1.20026 11.5 1.13718 11.5284 1.07935C11.5569 1.02152 11.597 0.970176 11.6462 0.928538C11.6954 0.886899 11.7526 0.855858 11.8144 0.837356L14.6057 0L14.8751 0.897334ZM8.47337 5.53161L9.39741 8.11818L11.3795 4.00216L8.47337 5.53161ZM14.557 9.41943L13.5669 6.82958C12.9597 7.18779 12.5093 7.76102 12.3048 8.43567C12.1004 9.11033 12.1568 9.83716 12.463 10.4722C12.7692 11.1071 13.3027 11.6039 13.9579 11.8641C14.6131 12.1242 15.3421 12.1288 16.0005 11.8768C16.6589 11.6248 17.1985 11.1346 17.5126 10.5035C17.8266 9.87236 17.8921 9.14628 17.696 8.46914C17.5 7.792 17.0567 7.21323 16.4541 6.8475C15.8514 6.48178 15.1333 6.35581 14.4422 6.49454L15.4323 9.08487C15.4746 9.20049 15.4698 9.32815 15.4187 9.44022C15.3677 9.55229 15.2746 9.63977 15.1596 9.68373C15.0446 9.7277 14.9168 9.72462 14.8041 9.67516C14.6913 9.6257 14.6025 9.53383 14.557 9.41943ZM6.52125 8.78357H3.74866C3.62438 8.78357 3.50519 8.83293 3.41732 8.92081C3.32944 9.00869 3.28007 9.12787 3.28007 9.25215C3.28007 9.37642 3.32944 9.49561 3.41732 9.58349C3.50519 9.67136 3.62438 9.72073 3.74866 9.72073H6.52125C6.40189 10.4143 6.02685 11.0378 5.47019 11.4684C4.91352 11.8989 4.21567 12.1051 3.51441 12.0463C2.81314 11.9874 2.15942 11.6678 1.68228 11.1505C1.20515 10.6332 0.939283 9.95588 0.937165 9.25215C0.936521 8.54675 1.20107 7.86688 1.67831 7.34744C2.15556 6.82799 2.81063 6.50692 3.51356 6.44794C4.21649 6.38895 4.9159 6.59636 5.47304 7.02901C6.03018 7.46165 6.40433 8.08792 6.52125 8.78357Z" fill="black"/>
</svg>
