<svg width="17" height="17" viewBox="0 0 17 17" fill="none" xmlns="http://www.w3.org/2000/svg">
<path fill-rule="evenodd" clip-rule="evenodd" d="M11.5909 6.18271C11.5909 7.00247 11.2653 7.78865 10.6856 8.36831C10.106 8.94797 9.31979 9.27361 8.50003 9.27361C7.68027 9.27361 6.89408 8.94797 6.31442 8.36831C5.73477 7.78865 5.40912 7.00247 5.40912 6.18271C5.40912 5.36295 5.73477 4.57676 6.31442 3.9971C6.89408 3.41745 7.68027 3.0918 8.50003 3.0918C9.31979 3.0918 10.106 3.41745 10.6856 3.9971C11.2653 4.57676 11.5909 5.36295 11.5909 6.18271ZM10.0455 6.18271C10.0455 6.59259 9.88266 6.98568 9.59283 7.27551C9.303 7.56534 8.90991 7.72816 8.50003 7.72816C8.09015 7.72816 7.69706 7.56534 7.40723 7.27551C7.1174 6.98568 6.95457 6.59259 6.95457 6.18271C6.95457 5.77283 7.1174 5.37973 7.40723 5.0899C7.69706 4.80008 8.09015 4.63725 8.50003 4.63725C8.90991 4.63725 9.303 4.80008 9.59283 5.0899C9.88266 5.37973 10.0455 5.77283 10.0455 6.18271Z" fill="#4565CF"/>
<path fill-rule="evenodd" clip-rule="evenodd" d="M8.5 0C3.80568 0 0 3.80568 0 8.5C0 13.1943 3.80568 17 8.5 17C13.1943 17 17 13.1943 17 8.5C17 3.80568 13.1943 0 8.5 0ZM1.54545 8.5C1.54545 10.115 2.09641 11.6017 3.01982 12.7825C3.66831 11.9308 4.50492 11.2407 5.46429 10.7659C6.42366 10.2911 7.4798 10.0445 8.55023 10.0455C9.6068 10.0445 10.6497 10.2846 11.5994 10.7477C12.549 11.2108 13.3805 11.8845 14.0304 12.7175C14.6999 11.8394 15.1507 10.8145 15.3455 9.72755C15.5403 8.64061 15.4734 7.52291 15.1505 6.46694C14.8275 5.41097 14.2578 4.44708 13.4883 3.65503C12.7189 2.86298 11.7719 2.26553 10.7257 1.91212C9.67958 1.55871 8.56429 1.45951 7.47216 1.62271C6.38004 1.78591 5.34247 2.20683 4.44532 2.85063C3.54817 3.49444 2.81722 4.34263 2.31295 5.32501C1.80868 6.3074 1.54559 7.39575 1.54545 8.5ZM8.5 15.4545C6.90351 15.4569 5.35521 14.9077 4.11709 13.8998C4.61545 13.1864 5.27876 12.6039 6.0506 12.2019C6.82245 11.7999 7.67997 11.5903 8.55023 11.5909C9.40962 11.5902 10.2568 11.7946 11.0214 12.187C11.7859 12.5794 12.4458 13.1486 12.9463 13.8473C11.6985 14.8879 10.1247 15.4568 8.5 15.4545Z" fill="#4565CF"/>
</svg>
